<svg width="225" height="225" version="1.1" xmlns="http://www.w3.org/2000/svg" desc="Created with imagetracer.js version 1.2.6" ><path fill="rgb(250,232,231)" stroke="rgb(250,232,231)" stroke-width="1" opacity="1" d="M 97.5 38 L 93.5 43 L 97.5 38 Z " /><path fill="rgb(250,232,231)" stroke="rgb(250,232,231)" stroke-width="1" opacity="1" d="M 123.5 39 L 125.5 42 L 123.5 39 Z " /><path fill="rgb(250,232,231)" stroke="rgb(250,232,231)" stroke-width="1" opacity="1" d="M 88.5 52 L 89 54.5 L 88 54.5 L 88.5 52 Z " /><path fill="rgb(250,232,231)" stroke="rgb(250,232,231)" stroke-width="1" opacity="1" d="M 180.5 57 L 181.5 59 L 180.5 57 Z " /><path fill="rgb(250,232,231)" stroke="rgb(250,232,231)" stroke-width="1" opacity="1" d="M 161.5 58 L 163.5 61 L 161.5 58 Z " /><path fill="rgb(250,232,231)" stroke="rgb(250,232,231)" stroke-width="1" opacity="1" d="M 64.5 59 L 62.5 62 L 64.5 59 Z " /><path fill="rgb(250,232,231)" stroke="rgb(250,232,231)" stroke-width="1" opacity="1" d="M 150.5 64 L 151.5 66 L 150.5 64 Z " /><path fill="rgb(250,232,231)" stroke="rgb(250,232,231)" stroke-width="1" opacity="1" d="M 62.5 68 L 65 71.5 L 62 69.5 L 62.5 68 Z " /><path fill="rgb(250,232,231)" stroke="rgb(250,232,231)" stroke-width="1" opacity="1" d="M 175.5 70 L 174.5 72 L 175.5 70 Z " /><path fill="rgb(250,232,231)" stroke="rgb(250,232,231)" stroke-width="1" opacity="1" d="M 150.5 75 L 148.5 78 L 150.5 75 Z " /><path fill="rgb(250,232,231)" stroke="rgb(250,232,231)" stroke-width="1" opacity="1" d="M 71.5 77 L 72.5 79 L 71.5 77 Z " /><path fill="rgb(250,232,231)" stroke="rgb(250,232,231)" stroke-width="1" opacity="1" d="M 75.5 80 L 76.5 82 L 75.5 80 Z " /><path fill="rgb(250,232,231)" stroke="rgb(250,232,231)" stroke-width="1" opacity="1" d="M 128.5 80 L 124.5 85 L 128.5 80 Z " /><path fill="rgb(250,232,231)" stroke="rgb(250,232,231)" stroke-width="1" opacity="1" d="M 52.5 82 L 74 102.5 L 53.5 83 L 52.5 82 Z " /><path fill="rgb(250,232,231)" stroke="rgb(250,232,231)" stroke-width="1" opacity="1" d="M 98.5 83 L 99.5 85 L 98.5 83 Z " /><path fill="rgb(250,232,231)" stroke="rgb(250,232,231)" stroke-width="1" opacity="1" d="M 159.5 90 L 158.5 92 L 159.5 90 Z " /><path fill="rgb(250,232,231)" stroke="rgb(250,232,231)" stroke-width="1" opacity="1" d="M 109.5 94 L 113 94.5 L 109.5 95 L 109.5 94 Z " /><path fill="rgb(250,232,231)" stroke="rgb(250,232,231)" stroke-width="1" opacity="1" d="M 45.5 105 L 46 107.5 L 45 107.5 L 45.5 105 Z " /><path fill="rgb(250,232,231)" stroke="rgb(250,232,231)" stroke-width="1" opacity="1" d="M 184.5 105 L 185 117.5 L 184 117.5 L 184.5 105 Z " /><path fill="rgb(250,232,231)" stroke="rgb(250,232,231)" stroke-width="1" opacity="1" d="M 80.5 110 L 81.5 112 L 80.5 110 Z " /><path fill="rgb(250,232,231)" stroke="rgb(250,232,231)" stroke-width="1" opacity="1" d="M 176.5 112 L 177 123.5 L 176 123.5 L 176.5 112 Z " /><path fill="rgb(250,232,231)" stroke="rgb(250,232,231)" stroke-width="1" opacity="1" d="M 45.5 116 L 46 119.5 L 45 119.5 L 45.5 116 Z " /><path fill="rgb(250,232,231)" stroke="rgb(250,232,231)" stroke-width="1" opacity="1" d="M 146.5 121 L 147 133.5 L 146 133.5 L 146.5 121 Z " /><path fill="rgb(250,232,231)" stroke="rgb(250,232,231)" stroke-width="1" opacity="1" d="M 37.5 124 L 38 126.5 L 37 126.5 L 37.5 124 Z " /><path fill="rgb(250,232,231)" stroke="rgb(250,232,231)" stroke-width="1" opacity="1" d="M 83.5 136 L 84 138.5 L 83 138.5 L 83.5 136 Z " /><path fill="rgb(250,232,231)" stroke="rgb(250,232,231)" stroke-width="1" opacity="1" d="M 82.5 144 L 83 146.5 L 82 146.5 L 82.5 144 Z " /><path fill="rgb(250,232,231)" stroke="rgb(250,232,231)" stroke-width="1" opacity="1" d="M 59.5 153 L 60.5 155 L 59.5 153 Z " /><path fill="rgb(250,232,231)" stroke="rgb(250,232,231)" stroke-width="1" opacity="1" d="M 168.5 158 L 167.5 160 L 168.5 158 Z " /><path fill="rgb(250,232,231)" stroke="rgb(250,232,231)" stroke-width="1" opacity="1" d="M 50.5 160 L 51.5 162 L 50.5 160 Z " /><path fill="rgb(250,232,231)" stroke="rgb(250,232,231)" stroke-width="1" opacity="1" d="M 70.5 164 L 71.5 166 L 70.5 164 Z " /><path fill="rgb(250,232,231)" stroke="rgb(250,232,231)" stroke-width="1" opacity="1" d="M 54.5 165 L 60.5 172 L 54.5 165 Z " /><path fill="rgb(250,232,231)" stroke="rgb(250,232,231)" stroke-width="1" opacity="1" d="M 74.5 167 L 75.5 169 L 74.5 167 Z " /><path fill="rgb(250,232,231)" stroke="rgb(250,232,231)" stroke-width="1" opacity="1" d="M 82.5 170 L 83 172.5 L 82 172.5 L 82.5 170 Z " /><path fill="rgb(250,232,231)" stroke="rgb(250,232,231)" stroke-width="1" opacity="1" d="M 106.5 190 L 110 190.5 L 106.5 191 L 106.5 190 Z " /><path fill="rgb(250,232,231)" stroke="rgb(250,232,231)" stroke-width="1" opacity="1" d="M 118.5 190 L 121 190.5 L 118.5 191 L 118.5 190 Z " /><path fill="rgb(216,0,0)" stroke="rgb(216,0,0)" stroke-width="1" opacity="1" d="M 167.5 59 L 166.5 61 L 167.5 59 Z " /><path fill="rgb(216,0,0)" stroke="rgb(216,0,0)" stroke-width="1" opacity="1" d="M 47.5 69 L 46.5 71 L 47.5 69 Z " /><path fill="rgb(216,0,0)" stroke="rgb(216,0,0)" stroke-width="1" opacity="1" d="M 95.5 79 L 96.5 81 L 95.5 79 Z " /><path fill="rgb(217,31,15)" stroke="rgb(217,31,15)" stroke-width="1" opacity="1" d="M 108.5 35 L 112 35.5 L 108.5 36 L 108.5 35 Z " /><path fill="rgb(217,31,15)" stroke="rgb(217,31,15)" stroke-width="1" opacity="1" d="M 113.5 35 L 116 36.5 L 114.5 37 L 113.5 35 Z " /><path fill="rgb(217,31,15)" stroke="rgb(217,31,15)" stroke-width="1" opacity="1" d="M 94.5 42 L 95 43.5 L 92 45.5 L 94.5 42 Z " /><path fill="rgb(217,31,15)" stroke="rgb(217,31,15)" stroke-width="1" opacity="1" d="M 89.5 56 L 90 63.5 L 89 63.5 L 89.5 56 Z " /><path fill="rgb(217,31,15)" stroke="rgb(217,31,15)" stroke-width="1" opacity="1" d="M 171.5 56 L 175 56.5 L 171.5 57 L 171.5 56 Z " /><path fill="rgb(217,31,15)" stroke="rgb(217,31,15)" stroke-width="1" opacity="1" d="M 159.5 58 L 163 60.5 L 162.5 62 L 159.5 58 Z " /><path fill="rgb(217,31,15)" stroke="rgb(217,31,15)" stroke-width="1" opacity="1" d="M 179.5 58 L 181 61.5 L 180 61.5 L 179.5 58 Z " /><path fill="rgb(217,31,15)" stroke="rgb(217,31,15)" stroke-width="1" opacity="1" d="M 66.5 59 L 65.5 61 L 64 60.5 L 66.5 59 Z " /><path fill="rgb(217,31,15)" stroke="rgb(217,31,15)" stroke-width="1" opacity="1" d="M 132.5 61 L 133 65.5 L 132 65.5 L 132.5 61 Z " /><path fill="rgb(217,31,15)" stroke="rgb(217,31,15)" stroke-width="1" opacity="1" d="M 150.5 63 L 153 64.5 L 151.5 64 L 150.5 63 Z " /><path fill="rgb(217,31,15)" stroke="rgb(217,31,15)" stroke-width="1" opacity="1" d="M 58.5 66 L 57.5 68 L 58.5 66 Z " /><path fill="rgb(217,31,15)" stroke="rgb(217,31,15)" stroke-width="1" opacity="1" d="M 175.5 68 L 174.5 70 L 175.5 68 Z " /><path fill="rgb(217,31,15)" stroke="rgb(217,31,15)" stroke-width="1" opacity="1" d="M 61.5 70 L 64 71.5 L 62.5 72 L 61.5 70 Z " /><path fill="rgb(217,31,15)" stroke="rgb(217,31,15)" stroke-width="1" opacity="1" d="M 152.5 75 L 150.5 78 L 152.5 75 Z " /><path fill="rgb(217,31,15)" stroke="rgb(217,31,15)" stroke-width="1" opacity="1" d="M 69.5 77 L 70.5 79 L 69.5 77 Z " /><path fill="rgb(217,31,15)" stroke="rgb(217,31,15)" stroke-width="1" opacity="1" d="M 127.5 79 L 126.5 81 L 127.5 79 Z " /><path fill="rgb(217,31,15)" stroke="rgb(217,31,15)" stroke-width="1" opacity="1" d="M 52.5 80 L 51.5 82 L 52.5 80 Z " /><path fill="rgb(217,31,15)" stroke="rgb(217,31,15)" stroke-width="1" opacity="1" d="M 165.5 80 L 168 81.5 L 166.5 81 Q 164.3 80.3 165 82.5 L 164 82.5 L 165.5 80 Z " /><path fill="rgb(217,31,15)" stroke="rgb(217,31,15)" stroke-width="1" opacity="1" d="M 120.5 85 L 119.5 87 L 120.5 85 Z " /><path fill="rgb(217,31,15)" stroke="rgb(217,31,15)" stroke-width="1" opacity="1" d="M 117.5 86 L 116.5 88 L 117.5 86 Z " /><path fill="rgb(217,31,15)" stroke="rgb(217,31,15)" stroke-width="1" opacity="1" d="M 132.5 89 L 134 89.5 L 131.5 91 L 132.5 89 Z " /><path fill="rgb(217,31,15)" stroke="rgb(217,31,15)" stroke-width="1" opacity="1" d="M 180.5 91 L 182 93.5 L 180 92.5 L 180.5 91 Z " /><path fill="rgb(217,31,15)" stroke="rgb(217,31,15)" stroke-width="1" opacity="1" d="M 65.5 92 L 70 97.5 L 69 97.5 L 66.5 94 Q 63.7 94.7 65.5 92 Z " /><path fill="rgb(217,31,15)" stroke="rgb(217,31,15)" stroke-width="1" opacity="1" d="M 95.5 92 L 96.5 94 L 95.5 92 Z " /><path fill="rgb(217,31,15)" stroke="rgb(217,31,15)" stroke-width="1" opacity="1" d="M 98.5 93 L 101 94.5 L 99.5 95 L 98.5 93 Z " /><path fill="rgb(217,31,15)" stroke="rgb(217,31,15)" stroke-width="1" opacity="1" d="M 42.5 94 L 41.5 96 L 42.5 94 Z " /><path fill="rgb(217,31,15)" stroke="rgb(217,31,15)" stroke-width="1" opacity="1" d="M 46.5 95 L 46 96.5 L 45.5 98 L 45 96.5 L 46.5 95 Z " /><path fill="rgb(217,31,15)" stroke="rgb(217,31,15)" stroke-width="1" opacity="1" d="M 181.5 95 L 183 97.5 L 181 96.5 L 181.5 95 Z " /><path fill="rgb(217,31,15)" stroke="rgb(217,31,15)" stroke-width="1" opacity="1" d="M 80.5 108 L 82 110.5 L 81 110.5 L 80.5 108 Z " /><path fill="rgb(217,31,15)" stroke="rgb(217,31,15)" stroke-width="1" opacity="1" d="M 148.5 108 L 147.5 110 L 148.5 108 Z " /><path fill="rgb(217,31,15)" stroke="rgb(217,31,15)" stroke-width="1" opacity="1" d="M 181.5 129 L 181 130.5 L 180.5 132 L 180 130.5 L 181.5 129 Z " /><path fill="rgb(217,31,15)" stroke="rgb(217,31,15)" stroke-width="1" opacity="1" d="M 176.5 132 L 175.5 134 L 176.5 132 Z " /><path fill="rgb(217,31,15)" stroke="rgb(217,31,15)" stroke-width="1" opacity="1" d="M 48.5 136 L 49.5 138 L 48.5 136 Z " /><path fill="rgb(217,31,15)" stroke="rgb(217,31,15)" stroke-width="1" opacity="1" d="M 145.5 136 L 146 138.5 L 145 138.5 L 145.5 136 Z " /><path fill="rgb(217,31,15)" stroke="rgb(217,31,15)" stroke-width="1" opacity="1" d="M 175.5 136 L 174.5 138 L 175.5 136 Z " /><path fill="rgb(217,31,15)" stroke="rgb(217,31,15)" stroke-width="1" opacity="1" d="M 40.5 137 L 41.5 139 L 40.5 137 Z " /><path fill="rgb(217,31,15)" stroke="rgb(217,31,15)" stroke-width="1" opacity="1" d="M 84.5 140 L 85 142.5 L 84 142.5 L 84.5 140 Z " /><path fill="rgb(217,31,15)" stroke="rgb(217,31,15)" stroke-width="1" opacity="1" d="M 177.5 141 L 176.5 143 L 177.5 141 Z " /><path fill="rgb(217,31,15)" stroke="rgb(217,31,15)" stroke-width="1" opacity="1" d="M 83.5 151 L 84 165.5 L 83 165.5 L 83.5 151 Z " /><path fill="rgb(217,31,15)" stroke="rgb(217,31,15)" stroke-width="1" opacity="1" d="M 55.5 164 L 61.5 171 L 58 169 L 55.5 164 Z " /><path fill="rgb(217,31,15)" stroke="rgb(217,31,15)" stroke-width="1" opacity="1" d="M 69.5 165 L 70.5 167 L 69.5 165 Z " /><path fill="rgb(217,31,15)" stroke="rgb(217,31,15)" stroke-width="1" opacity="1" d="M 134.5 186 L 133.5 188 L 134.5 186 Z " /><path fill="rgb(217,31,15)" stroke="rgb(217,31,15)" stroke-width="1" opacity="1" d="M 102.5 188 L 105 188.5 L 102.5 189 L 102.5 188 Z " /><path fill="rgb(217,31,15)" stroke="rgb(217,31,15)" stroke-width="1" opacity="1" d="M 107.5 189 L 110 189.5 L 107.5 190 L 107.5 189 Z " /><path fill="rgb(255,255,255)" stroke="rgb(255,255,255)" stroke-width="1" opacity="1" d="M 0 0 L 225 0 L 225 225 L 0 225 L 0 0 Z M 106 34 L 98 38 L 93 44 Q 76 48 65 59 L 58 66 L 57 65 L 49 67 L 45 71 Q 45 76 49 78 L 42 91 L 37 111 L 37 127 L 40 141 Q 45 155 54 166 Q 64 177 80 184 L 91 188 L 107 191 Q 137 192 156 180 L 159 176 L 150 153 L 147 140 L 147 117 L 148 112 Q 153 97 162 87 L 167 83 L 171 91 L 176 107 L 176 129 L 175 134 Q 172 147 164 156 L 164 159 L 168 160 L 179 142 L 183 130 L 184 119 L 185 118 L 185 106 L 182 90 L 174 74 L 182 63 L 182 59 L 177 55 L 171 55 L 165 61 Q 155 51 141 45 L 127 42 Q 122 36 114 34 L 106 34 Z " /><path fill="rgb(255,255,255)" stroke="rgb(255,255,255)" stroke-width="1" opacity="1" d="M 86.5 53 L 88 53.5 L 88 66.5 Q 91 78.5 99.5 85 Q 104.5 90.5 116.5 89 Q 124.5 86.5 129 80.5 L 134 69.5 L 134 56.5 L 133.5 55 Q 147.3 59.7 156 69.5 L 151.5 75 Q 140.5 85.5 125.5 92 L 118.5 94 L 103.5 94 Q 77.9 87.1 63 69.5 L 68.5 63 L 86.5 53 Z " /><path fill="rgb(255,255,255)" stroke="rgb(255,255,255)" stroke-width="1" opacity="1" d="M 52 83 L 53.5 83 L 80 109.5 Q 85.9 113.6 86 123.5 L 82 144.5 L 81.5 172 Q 69.4 165.6 61 155.5 Q 45.7 139.3 45 108.5 L 48 92.5 L 52 83 Z " /><path fill="rgb(218,41,28)" stroke="rgb(218,41,28)" stroke-width="1" opacity="1" d="M 104.5 35 L 113.5 36 L 115 35.5 L 114.5 37 L 117.5 36 L 118.5 38 L 120 37.5 L 119.5 39 L 121.5 40 L 123 39.5 L 122.5 41 L 125.5 43 L 127.5 42 L 127.5 44 L 131.5 43 L 132 45 L 135.5 44 L 135.5 46 L 138.5 45 L 139 47 L 142.5 48 L 144 47.5 L 143.5 49 L 145.5 48 L 145.5 50 L 147.5 49 L 147.5 51 L 149.5 50 L 149.5 52 L 151.5 53 L 153 52.5 L 152.5 54 L 154.5 55 L 156 54.5 L 155.5 56 L 159.5 59 L 161 58.5 Q 158.3 60.3 162.5 62 L 164 61.5 L 164.5 63 L 165 61 L 170.5 57 Q 176 58.5 177.5 56 L 177.5 58 L 179.5 57 L 180 59.5 L 179 63.5 L 179.5 65 L 178 64.5 L 176 67.5 Q 178.3 68.8 175.5 70 L 174 69.5 L 172 73.5 L 173.5 76 L 175 75.5 L 175 77.5 Q 174.3 79.8 176.5 79 L 176.5 81 L 178 81.5 L 177 83.5 L 179 83.5 L 178 85.5 L 179 89 L 181 89.5 L 180 92.5 L 182 92.5 L 181 96.5 L 183 96.5 L 182 102 L 184 102.5 L 183 103.5 L 183 118.5 L 184 120.5 L 182 120.5 L 183 126.5 L 181 126.5 L 182 130.5 L 180 130.5 L 181 134.5 L 179 134.5 L 178 138.5 L 178.5 140 Q 176.3 139.3 177 141.5 L 176 143.5 L 176.5 145 L 175 144.5 L 176 146.5 L 174 146.5 L 172 150.5 L 172.5 152 L 171 151.5 L 168 156.5 L 168.5 158 L 166 157.5 L 165 154.5 L 167 154.5 L 170 149.5 L 169.5 148 L 171 148.5 L 170 146.5 L 172 146.5 L 171 144.5 L 173 144 L 174 140.5 L 173.5 139 L 175 139.5 L 174 136.5 L 176 136.5 L 175 132.5 L 177 132.5 L 176 127.5 L 178 127.5 L 178 118.5 L 177 117.5 L 178 116.5 L 178 108.5 L 176 108.5 L 177 103 L 175 102.5 L 176 99 L 174 98.5 L 175 96 L 173 95.5 L 174 93.5 L 171.5 88 L 170 88.5 L 171 86.5 L 169 86.5 L 169.5 85 L 168 84.5 L 168 82.5 L 167.5 81 L 165.5 82 L 164 81.5 L 162 84.5 Q 164.3 85.8 161.5 87 L 159 88.5 Q 161.3 89.8 158.5 91 L 156 92.5 L 156.5 94 L 154 95.5 L 154.5 97 L 153 97.5 L 153.5 99 L 152 98.5 L 149 105.5 L 149.5 107 L 148 106.5 L 147 111.5 L 147.5 113 L 146 112.5 L 147 117.5 L 145 117.5 L 146 128.5 L 145 129.5 L 145 138.5 L 147 138.5 L 146 144 L 148 144.5 L 147 148.5 L 149 148.5 L 148 152 L 150 152.5 L 149 155.5 L 151 155.5 L 150 158.5 L 152 158.5 L 151 161 L 153 161.5 L 152 164 L 154 164.5 L 153 166.5 L 155 166.5 L 154 168.5 L 156.5 174 L 158 173.5 L 155.5 178 L 154 178.5 L 154.5 180 L 153 179.5 L 152.5 181 L 150.5 180 L 150.5 182 L 148.5 181 L 148.5 183 L 146.5 182 L 146.5 184 L 144 183 L 143.5 185 L 141 184 L 140.5 186 L 138 185 L 137.5 187 L 134.5 186 L 134.5 188 L 130 187 L 129.5 189 Q 128.3 186.8 123.5 188 L 123.5 190 L 107.5 189 L 104.5 190 L 104.5 188 Q 99 186.5 97.5 189 L 97.5 187 L 93.5 188 L 93 186 L 89.5 187 L 89.5 185 L 86.5 186 L 86.5 184 L 83.5 185 L 83.5 183 L 77.5 181 L 76 181.5 L 76.5 180 L 74.5 181 L 74.5 179 L 72.5 180 L 72.5 178 L 70.5 177 L 69 177.5 L 69.5 176 L 67.5 175 L 66 175.5 L 66.5 174 L 62.5 171 Q 60.7 173.8 59 169.5 Q 61.3 168.3 58.5 167 L 57.5 168 L 54 164.5 Q 56.5 163 53 161.5 L 52.5 160 L 51 160.5 Q 53.5 159 50 157.5 L 48.5 154 L 47 154.5 L 47 152.5 L 46 149 L 44 148.5 L 45 146.5 L 43 146.5 L 44 144.5 L 42.5 141 L 41 141.5 L 42 138.5 L 40.5 134 L 39 134.5 L 40 128.5 L 38 128.5 L 39 125.5 L 39 110.5 L 38 108.5 L 40 108.5 L 39 102.5 L 41 102.5 L 40 98.5 L 42 98.5 L 43 93.5 L 42.5 92 Q 44.8 92.8 44 90.5 L 43.5 89 L 45 89.5 L 44 87.5 L 46 87 L 47 84.5 L 46.5 83 L 48 82.5 L 47.5 81 L 49 81.5 L 48 79.5 L 50 79.5 L 49 77.5 Q 51.5 76 48 74.5 L 47.5 73 L 46 73.5 L 48.5 69 Q 50.8 69.8 50 67.5 L 51.5 68 L 55 67.5 L 53 66.5 L 57.5 66 L 58.5 67 L 64.5 61 L 66 60.5 Q 63.8 59.3 66.5 58 Q 67.8 60.3 69 57.5 L 70.5 55 L 72.5 55 L 74 54.5 L 73.5 53 L 75 53.5 L 75.5 52 L 77.5 52 L 79 51.5 L 78.5 50 L 80.5 51 L 80.5 49 L 82.5 50 L 82.5 48 L 84.5 49 L 87 48 L 87.5 46 L 89.5 47 L 94 44.5 L 93.5 43 L 95 43.5 L 98.5 38 L 100.5 38 L 105 36.5 L 104.5 35 Z M 87 51 L 87 53 L 85 52 L 85 54 L 82 53 L 82 55 L 80 54 L 80 56 L 79 55 L 78 57 L 77 56 L 75 57 L 73 60 L 72 59 L 69 61 L 69 63 L 68 62 L 61 69 L 61 71 L 64 72 L 69 77 L 70 76 Q 72 77 70 79 L 72 79 Q 73 82 75 80 L 74 82 L 76 82 Q 77 86 79 83 L 78 85 L 80 85 L 82 85 L 82 87 L 85 88 L 87 88 L 87 90 L 89 89 L 89 91 L 92 92 L 94 91 L 93 93 L 97 94 L 100 93 L 99 95 L 104 95 L 105 95 L 106 96 L 117 96 L 118 94 L 122 95 L 123 93 L 125 94 L 126 92 L 128 93 L 127 92 L 129 92 L 136 89 L 135 88 L 137 88 L 139 87 L 140 85 Q 141 82 143 84 L 146 82 L 145 81 L 147 81 L 151 78 L 150 77 Q 152 72 154 75 L 158 70 L 154 65 L 153 66 Q 150 65 152 64 L 151 63 Q 149 59 148 62 L 148 61 L 147 60 L 145 60 L 145 59 L 142 57 L 140 57 L 139 56 L 138 56 L 137 54 L 135 53 L 133 54 Q 130 53 131 56 L 133 56 L 132 58 L 132 69 L 133 71 L 131 71 L 132 74 L 131 73 L 129 78 L 129 80 Q 128 82 127 80 L 126 82 L 124 83 L 124 85 L 123 84 L 118 86 L 118 88 L 117 87 L 109 87 L 107 88 Q 108 85 106 86 L 104 87 Q 105 84 103 85 L 101 85 L 101 84 L 100 83 L 96 79 L 95 79 L 95 78 L 94 76 L 92 76 L 93 74 L 92 74 L 92 73 L 91 71 Q 92 67 90 68 L 90 67 L 90 54 L 89 53 Q 90 50 87 51 Z M 52 81 L 49 86 L 50 88 L 49 87 L 47 91 L 48 93 L 46 93 L 47 97 L 45 97 L 46 102 L 45 101 L 44 123 L 46 123 L 45 128 L 47 128 L 46 132 L 48 132 L 47 135 L 49 134 L 48 136 L 49 140 L 51 140 L 50 142 L 52 142 L 51 144 L 53 143 L 52 145 L 54 145 L 53 147 L 54 149 L 57 150 Q 59 151 57 153 L 60 154 Q 62 155 60 157 L 69 165 L 70 164 Q 72 165 70 167 L 72 167 Q 73 170 75 168 L 74 170 L 76 170 L 78 170 L 78 172 L 80 171 L 79 173 L 83 174 L 84 172 L 84 145 L 83 143 L 85 143 L 84 136 L 86 136 Q 87 131 85 130 L 87 129 L 87 123 L 86 122 L 87 117 L 85 117 L 86 115 L 85 115 L 85 114 L 82 110 L 81 110 L 81 109 L 70 97 L 69 97 Q 64 95 67 94 L 65 92 L 55 82 L 54 82 L 52 81 Z " /><path fill="rgb(218,41,28)" stroke="rgb(218,41,28)" stroke-width="1" opacity="1" d="M 88.5 58 L 89 60.5 L 88 60.5 L 88.5 58 Z " /><path fill="rgb(218,41,28)" stroke="rgb(218,41,28)" stroke-width="1" opacity="1" d="M 82.5 155 L 83 161.5 L 82 161.5 L 82.5 155 Z " /><path fill="rgb(216,18,0)" stroke="rgb(216,18,0)" stroke-width="1" opacity="1" d="M 100.5 37 L 99.5 39 L 100.5 37 Z " /><path fill="rgb(216,18,0)" stroke="rgb(216,18,0)" stroke-width="1" opacity="1" d="M 120.5 38 L 121.5 40 L 120.5 38 Z " /><path fill="rgb(216,18,0)" stroke="rgb(216,18,0)" stroke-width="1" opacity="1" d="M 124.5 41 L 125.5 43 L 124.5 41 Z " /><path fill="rgb(216,18,0)" stroke="rgb(216,18,0)" stroke-width="1" opacity="1" d="M 150.5 51 L 151.5 53 L 150.5 51 Z " /><path fill="rgb(216,18,0)" stroke="rgb(216,18,0)" stroke-width="1" opacity="1" d="M 153.5 53 L 154.5 55 L 153.5 53 Z " /><path fill="rgb(216,18,0)" stroke="rgb(216,18,0)" stroke-width="1" opacity="1" d="M 156.5 55 L 158.5 58 L 156.5 55 Z " /><path fill="rgb(216,18,0)" stroke="rgb(216,18,0)" stroke-width="1" opacity="1" d="M 76.5 56 L 75.5 58 L 76.5 56 Z " /><path fill="rgb(216,18,0)" stroke="rgb(216,18,0)" stroke-width="1" opacity="1" d="M 140.5 56 L 141.5 58 L 140.5 56 Z " /><path fill="rgb(216,18,0)" stroke="rgb(216,18,0)" stroke-width="1" opacity="1" d="M 68.5 57 L 67.5 59 L 68.5 57 Z " /><path fill="rgb(216,18,0)" stroke="rgb(216,18,0)" stroke-width="1" opacity="1" d="M 132.5 57 L 133 60.5 L 132 60.5 L 132.5 57 Z " /><path fill="rgb(216,18,0)" stroke="rgb(216,18,0)" stroke-width="1" opacity="1" d="M 169.5 57 L 168.5 59 L 169.5 57 Z " /><path fill="rgb(216,18,0)" stroke="rgb(216,18,0)" stroke-width="1" opacity="1" d="M 71.5 59 L 69.5 62 L 71.5 59 Z " /><path fill="rgb(216,18,0)" stroke="rgb(216,18,0)" stroke-width="1" opacity="1" d="M 145.5 59 L 146.5 61 L 145.5 59 Z " /><path fill="rgb(216,18,0)" stroke="rgb(216,18,0)" stroke-width="1" opacity="1" d="M 63.5 61 L 62.5 63 L 63.5 61 Z " /><path fill="rgb(216,18,0)" stroke="rgb(216,18,0)" stroke-width="1" opacity="1" d="M 67.5 62 L 63.5 67 L 67.5 62 Z " /><path fill="rgb(216,18,0)" stroke="rgb(216,18,0)" stroke-width="1" opacity="1" d="M 180.5 62 L 179.5 64 L 180.5 62 Z " /><path fill="rgb(216,18,0)" stroke="rgb(216,18,0)" stroke-width="1" opacity="1" d="M 60.5 64 L 59.5 66 L 60.5 64 Z " /><path fill="rgb(216,18,0)" stroke="rgb(216,18,0)" stroke-width="1" opacity="1" d="M 132.5 66 L 133 68.5 L 132 68.5 L 132.5 66 Z " /><path fill="rgb(216,18,0)" stroke="rgb(216,18,0)" stroke-width="1" opacity="1" d="M 155.5 67 L 156.5 69 L 155.5 67 Z " /><path fill="rgb(216,18,0)" stroke="rgb(216,18,0)" stroke-width="1" opacity="1" d="M 156.5 71 L 153.5 75 L 156.5 71 Z " /><path fill="rgb(216,18,0)" stroke="rgb(216,18,0)" stroke-width="1" opacity="1" d="M 64.5 72 L 65.5 74 L 64.5 72 Z " /><path fill="rgb(216,18,0)" stroke="rgb(216,18,0)" stroke-width="1" opacity="1" d="M 47.5 74 L 48.5 76 L 47.5 74 Z " /><path fill="rgb(216,18,0)" stroke="rgb(216,18,0)" stroke-width="1" opacity="1" d="M 130.5 74 L 131 75.5 L 128.5 79 L 129 77.5 L 130.5 74 Z " /><path fill="rgb(216,18,0)" stroke="rgb(216,18,0)" stroke-width="1" opacity="1" d="M 67.5 75 L 68.5 77 L 67.5 75 Z " /><path fill="rgb(216,18,0)" stroke="rgb(216,18,0)" stroke-width="1" opacity="1" d="M 93.5 76 L 94.5 78 L 93.5 76 Z " /><path fill="rgb(216,18,0)" stroke="rgb(216,18,0)" stroke-width="1" opacity="1" d="M 149.5 77 L 146.5 81 L 149.5 77 Z " /><path fill="rgb(216,18,0)" stroke="rgb(216,18,0)" stroke-width="1" opacity="1" d="M 71.5 78 L 73.5 81 L 71.5 78 Z " /><path fill="rgb(216,18,0)" stroke="rgb(216,18,0)" stroke-width="1" opacity="1" d="M 97.5 81 L 99.5 84 L 97.5 81 Z " /><path fill="rgb(216,18,0)" stroke="rgb(216,18,0)" stroke-width="1" opacity="1" d="M 126.5 81 L 125.5 83 L 126.5 81 Z " /><path fill="rgb(216,18,0)" stroke="rgb(216,18,0)" stroke-width="1" opacity="1" d="M 167.5 82 L 168.5 84 L 167.5 82 Z " /><path fill="rgb(216,18,0)" stroke="rgb(216,18,0)" stroke-width="1" opacity="1" d="M 163.5 83 L 162.5 85 L 163.5 83 Z " /><path fill="rgb(216,18,0)" stroke="rgb(216,18,0)" stroke-width="1" opacity="1" d="M 46.5 84 L 46 85.5 L 45.5 87 L 45 85.5 L 46.5 84 Z " /><path fill="rgb(216,18,0)" stroke="rgb(216,18,0)" stroke-width="1" opacity="1" d="M 56.5 84 L 59.5 88 L 56.5 84 Z " /><path fill="rgb(216,18,0)" stroke="rgb(216,18,0)" stroke-width="1" opacity="1" d="M 79.5 84 L 80.5 86 L 79.5 84 Z " /><path fill="rgb(216,18,0)" stroke="rgb(216,18,0)" stroke-width="1" opacity="1" d="M 122.5 84 L 121.5 86 L 122.5 84 Z " /><path fill="rgb(216,18,0)" stroke="rgb(216,18,0)" stroke-width="1" opacity="1" d="M 84.5 87 L 85.5 89 L 84.5 87 Z " /><path fill="rgb(216,18,0)" stroke="rgb(216,18,0)" stroke-width="1" opacity="1" d="M 108.5 87 L 112 87.5 L 108.5 88 L 108.5 87 Z " /><path fill="rgb(216,18,0)" stroke="rgb(216,18,0)" stroke-width="1" opacity="1" d="M 113.5 87 L 116 87.5 L 113.5 88 L 113.5 87 Z " /><path fill="rgb(216,18,0)" stroke="rgb(216,18,0)" stroke-width="1" opacity="1" d="M 160.5 87 L 159.5 89 L 160.5 87 Z " /><path fill="rgb(216,18,0)" stroke="rgb(216,18,0)" stroke-width="1" opacity="1" d="M 63.5 91 L 64.5 93 L 63.5 91 Z " /><path fill="rgb(216,18,0)" stroke="rgb(216,18,0)" stroke-width="1" opacity="1" d="M 157.5 91 L 156.5 93 L 157.5 91 Z " /><path fill="rgb(216,18,0)" stroke="rgb(216,18,0)" stroke-width="1" opacity="1" d="M 107.5 95 L 115 95.5 L 107.5 96 L 107.5 95 Z " /><path fill="rgb(216,18,0)" stroke="rgb(216,18,0)" stroke-width="1" opacity="1" d="M 182.5 98 L 183 100.5 L 182 100.5 L 182.5 98 Z " /><path fill="rgb(216,18,0)" stroke="rgb(216,18,0)" stroke-width="1" opacity="1" d="M 72.5 100 L 76.5 105 L 72.5 100 Z " /><path fill="rgb(216,18,0)" stroke="rgb(216,18,0)" stroke-width="1" opacity="1" d="M 44.5 103 L 45 105.5 L 44 105.5 L 44.5 103 Z " /><path fill="rgb(216,18,0)" stroke="rgb(216,18,0)" stroke-width="1" opacity="1" d="M 39.5 104 L 40 106.5 L 39 106.5 L 39.5 104 Z " /><path fill="rgb(216,18,0)" stroke="rgb(216,18,0)" stroke-width="1" opacity="1" d="M 78.5 106 L 79.5 108 L 78.5 106 Z " /><path fill="rgb(216,18,0)" stroke="rgb(216,18,0)" stroke-width="1" opacity="1" d="M 183.5 107 L 184 115.5 L 183 115.5 L 183.5 107 Z " /><path fill="rgb(216,18,0)" stroke="rgb(216,18,0)" stroke-width="1" opacity="1" d="M 44.5 108 L 45 115.5 L 44 115.5 L 44.5 108 Z " /><path fill="rgb(216,18,0)" stroke="rgb(216,18,0)" stroke-width="1" opacity="1" d="M 177.5 110 L 178 112.5 L 177 112.5 L 177.5 110 Z " /><path fill="rgb(216,18,0)" stroke="rgb(216,18,0)" stroke-width="1" opacity="1" d="M 38.5 111 L 39 125.5 L 38 125.5 L 38.5 111 Z " /><path fill="rgb(216,18,0)" stroke="rgb(216,18,0)" stroke-width="1" opacity="1" d="M 83.5 112 L 84.5 114 L 83.5 112 Z " /><path fill="rgb(216,18,0)" stroke="rgb(216,18,0)" stroke-width="1" opacity="1" d="M 146.5 113 L 147 115.5 L 146 115.5 L 146.5 113 Z " /><path fill="rgb(216,18,0)" stroke="rgb(216,18,0)" stroke-width="1" opacity="1" d="M 177.5 114 L 178 116.5 L 177 116.5 L 177.5 114 Z " /><path fill="rgb(216,18,0)" stroke="rgb(216,18,0)" stroke-width="1" opacity="1" d="M 44.5 118 L 45 120.5 L 44 120.5 L 44.5 118 Z " /><path fill="rgb(216,18,0)" stroke="rgb(216,18,0)" stroke-width="1" opacity="1" d="M 145.5 119 L 146 122.5 L 145 122.5 L 145.5 119 Z " /><path fill="rgb(216,18,0)" stroke="rgb(216,18,0)" stroke-width="1" opacity="1" d="M 182.5 122 L 183 124.5 L 182 124.5 L 182.5 122 Z " /><path fill="rgb(216,18,0)" stroke="rgb(216,18,0)" stroke-width="1" opacity="1" d="M 177.5 123 L 178 125.5 L 177 125.5 L 177.5 123 Z " /><path fill="rgb(216,18,0)" stroke="rgb(216,18,0)" stroke-width="1" opacity="1" d="M 85.5 131 L 86 133.5 L 85 133.5 L 85.5 131 Z " /><path fill="rgb(216,18,0)" stroke="rgb(216,18,0)" stroke-width="1" opacity="1" d="M 145.5 131 L 146 135.5 L 145 135.5 L 145.5 131 Z " /><path fill="rgb(216,18,0)" stroke="rgb(216,18,0)" stroke-width="1" opacity="1" d="M 146.5 140 L 147 142.5 L 146 142.5 L 146.5 140 Z " /><path fill="rgb(216,18,0)" stroke="rgb(216,18,0)" stroke-width="1" opacity="1" d="M 83.5 145 L 84 150.5 L 83 150.5 L 83.5 145 Z " /><path fill="rgb(216,18,0)" stroke="rgb(216,18,0)" stroke-width="1" opacity="1" d="M 45.5 149 L 47 151.5 L 45 150.5 L 45.5 149 Z " /><path fill="rgb(216,18,0)" stroke="rgb(216,18,0)" stroke-width="1" opacity="1" d="M 173.5 149 L 172.5 151 L 173.5 149 Z " /><path fill="rgb(216,18,0)" stroke="rgb(216,18,0)" stroke-width="1" opacity="1" d="M 60.5 156 L 61.5 158 L 60.5 156 Z " /><path fill="rgb(216,18,0)" stroke="rgb(216,18,0)" stroke-width="1" opacity="1" d="M 165.5 157 L 166.5 159 L 165.5 157 Z " /><path fill="rgb(216,18,0)" stroke="rgb(216,18,0)" stroke-width="1" opacity="1" d="M 63.5 159 L 65.5 162 L 63.5 159 Z " /><path fill="rgb(216,18,0)" stroke="rgb(216,18,0)" stroke-width="1" opacity="1" d="M 52.5 161 L 54.5 164 L 52.5 161 Z " /><path fill="rgb(216,18,0)" stroke="rgb(216,18,0)" stroke-width="1" opacity="1" d="M 67.5 163 L 68.5 165 L 67.5 163 Z " /><path fill="rgb(216,18,0)" stroke="rgb(216,18,0)" stroke-width="1" opacity="1" d="M 83.5 166 L 84 171.5 L 83 171.5 L 83.5 166 Z " /><path fill="rgb(216,18,0)" stroke="rgb(216,18,0)" stroke-width="1" opacity="1" d="M 72.5 167 L 73.5 169 L 72.5 167 Z " /><path fill="rgb(216,18,0)" stroke="rgb(216,18,0)" stroke-width="1" opacity="1" d="M 75.5 169 L 76.5 171 L 75.5 169 Z " /><path fill="rgb(216,18,0)" stroke="rgb(216,18,0)" stroke-width="1" opacity="1" d="M 62.5 171 L 63.5 173 L 62.5 171 Z " /><path fill="rgb(216,18,0)" stroke="rgb(216,18,0)" stroke-width="1" opacity="1" d="M 157.5 174 L 158 176.5 L 156 177.5 L 157.5 174 Z " /><path fill="rgb(216,18,0)" stroke="rgb(216,18,0)" stroke-width="1" opacity="1" d="M 67.5 175 L 68.5 177 L 67.5 175 Z " /><path fill="rgb(216,18,0)" stroke="rgb(216,18,0)" stroke-width="1" opacity="1" d="M 70.5 177 L 71.5 179 L 70.5 177 Z " /><path fill="rgb(216,18,0)" stroke="rgb(216,18,0)" stroke-width="1" opacity="1" d="M 110.5 189 L 113 189.5 L 110.5 190 L 110.5 189 Z " /><path fill="rgb(216,18,0)" stroke="rgb(216,18,0)" stroke-width="1" opacity="1" d="M 114.5 189 L 118 189.5 L 114.5 190 L 114.5 189 Z " /><path fill="rgb(237,163,159)" stroke="rgb(237,163,159)" stroke-width="1" opacity="1" d="M 107.5 34 L 113 34.5 L 107.5 35 L 107.5 34 Z " /><path fill="rgb(237,163,159)" stroke="rgb(237,163,159)" stroke-width="1" opacity="1" d="M 88.5 55 L 89 57.5 L 88 57.5 L 88.5 55 Z " /><path fill="rgb(237,163,159)" stroke="rgb(237,163,159)" stroke-width="1" opacity="1" d="M 157.5 55 L 159.5 58 L 157.5 55 Z " /><path fill="rgb(237,163,159)" stroke="rgb(237,163,159)" stroke-width="1" opacity="1" d="M 170.5 55 L 172 55.5 L 166.5 60 L 170.5 55 Z " /><path fill="rgb(237,163,159)" stroke="rgb(237,163,159)" stroke-width="1" opacity="1" d="M 68.5 56 L 67.5 58 L 68.5 56 Z " /><path fill="rgb(237,163,159)" stroke="rgb(237,163,159)" stroke-width="1" opacity="1" d="M 133.5 58 L 134 67.5 L 133 67.5 L 133.5 58 Z " /><path fill="rgb(237,163,159)" stroke="rgb(237,163,159)" stroke-width="1" opacity="1" d="M 71.5 60 L 70.5 62 L 71.5 60 Z " /><path fill="rgb(237,163,159)" stroke="rgb(237,163,159)" stroke-width="1" opacity="1" d="M 88.5 61 L 89 64.5 L 88 64.5 L 88.5 61 Z " /><path fill="rgb(237,163,159)" stroke="rgb(237,163,159)" stroke-width="1" opacity="1" d="M 61.5 62 L 59.5 65 L 61.5 62 Z " /><path fill="rgb(237,163,159)" stroke="rgb(237,163,159)" stroke-width="1" opacity="1" d="M 148.5 62 L 149.5 64 L 148.5 62 Z " /><path fill="rgb(237,163,159)" stroke="rgb(237,163,159)" stroke-width="1" opacity="1" d="M 67.5 63 L 63.5 68 L 67.5 63 Z " /><path fill="rgb(237,163,159)" stroke="rgb(237,163,159)" stroke-width="1" opacity="1" d="M 153.5 66 L 157 70.5 L 153 73.5 L 156 69.5 L 153.5 66 Z " /><path fill="rgb(237,163,159)" stroke="rgb(237,163,159)" stroke-width="1" opacity="1" d="M 178.5 66 L 177.5 68 L 178.5 66 Z " /><path fill="rgb(237,163,159)" stroke="rgb(237,163,159)" stroke-width="1" opacity="1" d="M 47.5 68 L 46.5 70 L 47.5 68 Z " /><path fill="rgb(237,163,159)" stroke="rgb(237,163,159)" stroke-width="1" opacity="1" d="M 65.5 72 L 68.5 76 L 65.5 72 Z " /><path fill="rgb(237,163,159)" stroke="rgb(237,163,159)" stroke-width="1" opacity="1" d="M 47.5 75 L 48.5 77 L 47.5 75 Z " /><path fill="rgb(237,163,159)" stroke="rgb(237,163,159)" stroke-width="1" opacity="1" d="M 147.5 78 L 146.5 80 L 147.5 78 Z " /><path fill="rgb(237,163,159)" stroke="rgb(237,163,159)" stroke-width="1" opacity="1" d="M 95.5 80 L 97.5 83 L 95.5 80 Z " /><path fill="rgb(237,163,159)" stroke="rgb(237,163,159)" stroke-width="1" opacity="1" d="M 164.5 83 L 163.5 85 L 164.5 83 Z " /><path fill="rgb(237,163,159)" stroke="rgb(237,163,159)" stroke-width="1" opacity="1" d="M 139.5 84 L 138.5 86 L 139.5 84 Z " /><path fill="rgb(237,163,159)" stroke="rgb(237,163,159)" stroke-width="1" opacity="1" d="M 109.5 88 L 115 88.5 L 109.5 89 L 109.5 88 Z " /><path fill="rgb(237,163,159)" stroke="rgb(237,163,159)" stroke-width="1" opacity="1" d="M 105.5 94 L 109 94.5 L 105.5 95 L 105.5 94 Z " /><path fill="rgb(237,163,159)" stroke="rgb(237,163,159)" stroke-width="1" opacity="1" d="M 113.5 94 L 117 94.5 L 113.5 95 L 113.5 94 Z " /><path fill="rgb(237,163,159)" stroke="rgb(237,163,159)" stroke-width="1" opacity="1" d="M 183.5 99 L 184 101.5 L 183 101.5 L 183.5 99 Z " /><path fill="rgb(237,163,159)" stroke="rgb(237,163,159)" stroke-width="1" opacity="1" d="M 45.5 102 L 46 104.5 L 45 104.5 L 45.5 102 Z " /><path fill="rgb(237,163,159)" stroke="rgb(237,163,159)" stroke-width="1" opacity="1" d="M 74.5 103 L 79.5 109 L 74.5 103 Z " /><path fill="rgb(237,163,159)" stroke="rgb(237,163,159)" stroke-width="1" opacity="1" d="M 38.5 105 L 39 107.5 L 38 107.5 L 38.5 105 Z " /><path fill="rgb(237,163,159)" stroke="rgb(237,163,159)" stroke-width="1" opacity="1" d="M 176.5 109 L 177 111.5 L 176 111.5 L 176.5 109 Z " /><path fill="rgb(237,163,159)" stroke="rgb(237,163,159)" stroke-width="1" opacity="1" d="M 37.5 112 L 38 123.5 L 37 123.5 L 37.5 112 Z " /><path fill="rgb(237,163,159)" stroke="rgb(237,163,159)" stroke-width="1" opacity="1" d="M 82.5 112 L 83.5 114 L 82.5 112 Z " /><path fill="rgb(237,163,159)" stroke="rgb(237,163,159)" stroke-width="1" opacity="1" d="M 146.5 118 L 147 120.5 L 146 120.5 L 146.5 118 Z " /><path fill="rgb(237,163,159)" stroke="rgb(237,163,159)" stroke-width="1" opacity="1" d="M 183.5 121 L 184 123.5 L 183 123.5 L 183.5 121 Z " /><path fill="rgb(237,163,159)" stroke="rgb(237,163,159)" stroke-width="1" opacity="1" d="M 176.5 124 L 177 126.5 L 176 126.5 L 176.5 124 Z " /><path fill="rgb(237,163,159)" stroke="rgb(237,163,159)" stroke-width="1" opacity="1" d="M 85.5 126 L 86 128.5 L 85 128.5 L 85.5 126 Z " /><path fill="rgb(237,163,159)" stroke="rgb(237,163,159)" stroke-width="1" opacity="1" d="M 38.5 129 L 39 131.5 L 38 131.5 L 38.5 129 Z " /><path fill="rgb(237,163,159)" stroke="rgb(237,163,159)" stroke-width="1" opacity="1" d="M 84.5 132 L 85 134.5 L 84 134.5 L 84.5 132 Z " /><path fill="rgb(237,163,159)" stroke="rgb(237,163,159)" stroke-width="1" opacity="1" d="M 146.5 134 L 147 137.5 L 146 137.5 L 146.5 134 Z " /><path fill="rgb(237,163,159)" stroke="rgb(237,163,159)" stroke-width="1" opacity="1" d="M 83.5 139 L 84 141.5 L 83 141.5 L 83.5 139 Z " /><path fill="rgb(237,163,159)" stroke="rgb(237,163,159)" stroke-width="1" opacity="1" d="M 147.5 141 L 148 143.5 L 147 143.5 L 147.5 141 Z " /><path fill="rgb(237,163,159)" stroke="rgb(237,163,159)" stroke-width="1" opacity="1" d="M 82.5 147 L 83 154.5 L 82 154.5 L 82.5 147 Z " /><path fill="rgb(237,163,159)" stroke="rgb(237,163,159)" stroke-width="1" opacity="1" d="M 55.5 148 L 56.5 150 L 55.5 148 Z " /><path fill="rgb(237,163,159)" stroke="rgb(237,163,159)" stroke-width="1" opacity="1" d="M 167.5 151 L 166.5 153 L 167.5 151 Z " /><path fill="rgb(237,163,159)" stroke="rgb(237,163,159)" stroke-width="1" opacity="1" d="M 172.5 152 L 171.5 154 L 172.5 152 Z " /><path fill="rgb(237,163,159)" stroke="rgb(237,163,159)" stroke-width="1" opacity="1" d="M 61.5 156 L 68.5 164 L 61.5 156 Z " /><path fill="rgb(237,163,159)" stroke="rgb(237,163,159)" stroke-width="1" opacity="1" d="M 49.5 158 L 50.5 160 L 49.5 158 Z " /><path fill="rgb(237,163,159)" stroke="rgb(237,163,159)" stroke-width="1" opacity="1" d="M 52.5 162 L 53.5 164 L 52.5 162 Z " /><path fill="rgb(237,163,159)" stroke="rgb(237,163,159)" stroke-width="1" opacity="1" d="M 82.5 162 L 83 169.5 L 82 169.5 L 82.5 162 Z " /><path fill="rgb(237,163,159)" stroke="rgb(237,163,159)" stroke-width="1" opacity="1" d="M 72.5 166 L 73.5 168 L 72.5 166 Z " /><path fill="rgb(237,163,159)" stroke="rgb(237,163,159)" stroke-width="1" opacity="1" d="M 62.5 172 L 64.5 175 L 62.5 172 Z " /><path fill="rgb(237,163,159)" stroke="rgb(237,163,159)" stroke-width="1" opacity="1" d="M 157.5 177 L 156.5 179 L 157.5 177 Z " /><path fill="rgb(237,163,159)" stroke="rgb(237,163,159)" stroke-width="1" opacity="1" d="M 101.5 189 L 104 189.5 L 101.5 190 L 101.5 189 Z " /><path fill="rgb(237,163,159)" stroke="rgb(237,163,159)" stroke-width="1" opacity="1" d="M 110.5 190 L 118 190.5 L 110.5 191 L 110.5 190 Z " /></svg>